<?xml version="1.0" encoding="UTF-8"?>
<svg xmlns="http://www.w3.org/2000/svg" xmlns:xlink="http://www.w3.org/1999/xlink" width="512" height="512" viewBox="0 0 58 58" version="1.1"><!-- Generator: Sketch 51.3 (57544) - http://www.bohemiancoding.com/sketch --><title>010 - Fuel Pump</title><desc>Created with Sketch.</desc><defs/><g id="Page-1" stroke="none" stroke-width="1" fill="none" fill-rule="evenodd"><g id="010---Fuel-Pump" transform="translate(-1.000000, 0.000000)" fill-rule="nonzero"><path d="M29.151,11.235 L22.044,5.459 C21.7830734,5.24692953 21.4825792,5.08886417 21.16,4.994 L4.994,0.235 C4.34846182,0.0447262649 3.6537729,0.118741806 3.06281655,0.440757689 C2.4718602,0.762773573 2.03306551,1.30640048 1.843,1.952 L1.126,4.386 C0.731082864,5.73020553 1.50006651,7.14015808 2.844,7.536 L17.778,11.936 C18.1105869,12.034023 18.4195936,12.1990762 18.686,12.421 L23.953,16.809 L29.125,16 L29.151,11.235 Z" id="Shape" fill="#BDC3C7"/><path d="M43.377,51.191 C42.9472907,51.190961 42.5656476,50.9164034 42.429,50.509 L38.472,38.751 C38.1479172,37.7672202 37.5388046,36.9019323 36.722,36.265 L34.027,34.136 C33.5934565,33.7933073 33.5198073,33.1640435 33.8625,32.7305 C34.2051927,32.2969565 34.8344565,32.2233073 35.268,32.566 L37.96,34.7 C39.0852735,35.5781885 39.9241267,36.7710308 40.37,38.127 L44.325,49.877 C44.4277188,50.1821793 44.3771979,50.5181496 44.1892698,50.7796234 C44.0013417,51.0410972 43.6990024,51.196079 43.377,51.196 L43.377,51.191 Z" id="Shape" fill="#4C8056"/><path d="M49.386,26.053 L50.472,24.8 C51.388245,23.7407202 51.2732297,22.1394576 50.215,21.222 L39.668,12.083 C39.1589969,11.6421619 38.4956708,11.4216674 37.8240452,11.470056 C37.1524196,11.5184446 36.5275521,11.8317493 36.087,12.341 L33.738,15.058 L29.151,11.235 L23.951,16.806 L25.076,17.746 L32.026,53.865 C32.3178986,55.3827253 33.2856251,56.684662 34.6547896,57.401658 C36.0239542,58.1186541 37.6452597,58.1725264 39.059,57.548 L49.45,52.958 C49.6842361,53.5325147 50.137577,53.9901263 50.7098701,54.2297389 C51.2821633,54.4693515 51.9263083,54.4712446 52.5,54.235 L57.563,52.159 C58.7552375,51.6695275 59.3254501,50.3066567 58.837,49.114 L49.386,26.053 Z M47.686,48.288 L38.117,52.51 C37.7554958,52.6695714 37.3402888,52.6516332 36.9938938,52.4614786 C36.6474987,52.271324 36.4094543,51.9306578 36.35,51.54 L34.009,36.08 C33.7003457,34.0416175 35.0707811,32.1280623 37.1,31.764 L38.6,31.496 C40.4561705,31.1629827 42.276226,32.239785 42.878,34.027 L47.678,48.288 L47.686,48.288 Z" id="Shape" fill="#4FBA6F"/><path d="M13,26.5 C13.0973232,29.4632953 10.9378086,32.0201606 8,32.42 C7.66921077,32.4722659 7.33489142,32.4990115 7,32.5 C5.39485339,32.5466529 3.84147334,31.9295054 2.70598399,30.794016 C1.57049464,29.6585267 0.953347082,28.1051466 1,26.5 C1,23.71 4.63,18.21 6.24,16.35 C6.42998824,16.1278336 6.7076758,15.9999231 7,15.9999231 C7.2923242,15.9999231 7.57001176,16.1278336 7.76,16.35 C7.84,16.44 7.92,16.54 8,16.64 C9.71,18.73 13,23.84 13,26.5 Z" id="Shape" fill="#E4C05C"/><path d="M13,26.5 C13.0973232,29.4632953 10.9378086,32.0201606 8,32.42 C5.06219144,32.0201606 2.90267684,29.4632953 3,26.5 C3,23.84 6.29,18.73 8,16.64 C9.71,18.73 13,23.84 13,26.5 Z" id="Shape" fill="#B19046"/><path d="M29.416,21.708 C28.9595158,21.707653 28.561208,21.3982238 28.448,20.956 L27.948,19 C27.8586836,18.6538096 27.9608422,18.2862668 28.2159936,18.0358214 C28.4711451,17.7853759 28.8405258,17.6900765 29.1849936,17.7858214 C29.5294615,17.8815663 29.7966836,18.1538096 29.886,18.5 L30.386,20.459 C30.5224055,20.9941626 30.1991586,21.5385785 29.664,21.675 C29.58312,21.6967372 29.4997499,21.7078308 29.416,21.708 Z" id="Shape" fill="#7ED09E"/><path d="M31.916,31 C31.4523886,30.9999116 31.0496306,30.6811823 30.943,30.23 L29.526,24.23 C29.3989745,23.6920747 29.7320747,23.1530255 30.27,23.026 C30.8079253,22.8989745 31.3469745,23.2320747 31.474,23.77 L32.891,29.77 C33.0159124,30.3069763 32.6826639,30.8437523 32.146,30.97 C32.0708332,30.9892882 31.9935994,30.9993622 31.916,31 Z" id="Shape" fill="#7ED09E"/></g></g></svg>
