<svg height="512pt" viewBox="-24 0 512 512" width="512pt" xmlns="http://www.w3.org/2000/svg"><path d="m419.738281 413.375c-25.597656.441406-46.550781-20.953125-46.550781-46.558594v-22.527344c0-8.183593-6.632812-14.820312-14.816406-14.820312h-27.5625v-30.9375h27.5625c25.269531 0 45.753906 20.488281 45.753906 45.753906v22.914063c0 7.96875 6.109375 14.835937 14.070312 15.230469 8.507813.417968 15.5625-6.382813 15.5625-14.800782v-257.53125c0-4.824218-1.914062-9.449218-5.328124-12.859375l-45.761719-45.765625c-2.734375-2.734375-2.734375-7.164062 0-9.894531l11.976562-11.980469c2.734375-2.734375 7.164063-2.734375 9.898438 0l54.824219 54.828125c3.410156 3.410157 5.328124 8.035157 5.328124 12.859375v270.34375c0 24.964844-20.09375 45.320313-44.957031 45.746094zm0 0" fill="#b9acac"/><path d="m459.367188 84.425781-54.824219-54.828125c-2.734375-2.734375-7.164063-2.734375-9.898438 0l-3.328125 3.328125 51.5 51.5c3.410156 3.410157 5.328125 8.035157 5.328125 12.859375v270.34375c0 22.378906-16.15625 41.046875-37.414062 44.980469 2.914062.546875 5.925781.820313 9.007812.765625 24.863281-.425781 44.957031-20.78125 44.957031-45.746094v-270.34375c0-4.824218-1.917968-9.449218-5.328124-12.859375zm0 0" fill="#9e9797"/><path d="m433.757812 215.695312v151.933594c0 8.417969-7.054687 15.21875-15.5625 14.796875-7.960937-.390625-14.070312-7.257812-14.070312-15.226562v-22.914063c0-25.265625-20.484375-45.753906-45.753906-45.753906h-27.5625v30.9375h27.5625c8.183594 0 14.816406 6.636719 14.816406 14.820312v22.527344c0 25.605469 20.953125 46.996094 46.550781 46.558594 24.863281-.425781 44.957031-20.78125 44.957031-45.746094v-151.933594zm0 0" fill="#766e6e"/><path d="m448.144531 205.902344h-18.800781c-14.824219 0-27.15625-11.589844-28.078125-26.386719l-3.914063-62.898437 14.96875-.933594 3.914063 62.898437c.429687 6.90625 6.191406 12.320313 13.109375 12.320313h18.800781zm0 0" fill="#b9acac"/><path d="m407.941406 105.128906c-6.382812 0-11.421875 5.421875-10.953125 11.789063l1.625 22.066406h24.203125c6.042969 0 10.941406 4.898437 10.941406 10.941406v68.175781h30.9375v-112.972656zm0 0" fill="#ff6930"/><path d="m448.140625 215.695312v151.933594c0 22.378906-16.15625 41.046875-37.414063 44.980469 2.917969.546875 5.929688.820313 9.007813.765625 24.863281-.425781 44.957031-20.78125 44.957031-45.746094v-151.933594zm0 0" fill="#5b5555"/><path d="m333.738281 480.03125h-283.863281c-7.042969 0-12.75-5.707031-12.75-12.75v-454.53125c0-7.042969 5.707031-12.75 12.75-12.75h283.863281c7.042969 0 12.75 5.707031 12.75 12.75v454.53125c0 7.042969-5.707031 12.75-12.75 12.75zm0 0" fill="#766e6e"/><path d="m333.339844 0h-76.597656c7.261718 0 13.148437 5.886719 13.148437 13.148438v453.734374c0 7.261719-5.886719 13.148438-13.148437 13.148438h76.597656c7.261718 0 13.148437-5.886719 13.148437-13.148438v-453.734374c0-7.261719-5.886719-13.148438-13.148437-13.148438zm0 0" fill="#5b5555"/><path d="m297.015625 226.695312h-210.417969c-7.039062 0-12.75-5.707031-12.75-12.75v-149.289062c0-7.042969 5.710938-12.75 12.75-12.75h210.417969c7.039063 0 12.75 5.707031 12.75 12.75v149.289062c0 7.042969-5.710937 12.75-12.75 12.75zm0 0" fill="#e1d3ce"/><path d="m296.617188 51.90625h-7.722657v137.734375c0 7.261719-5.886719 13.148437-13.148437 13.148437h-201.898438v10.757813c0 7.261719 5.886719 13.148437 13.148438 13.148437h209.621094c7.261718 0 13.148437-5.886718 13.148437-13.148437v-148.492187c0-7.265626-5.886719-13.148438-13.148437-13.148438zm0 0" fill="#cdbfba"/><path d="m37.125 259.351562v207.53125c0 7.261719 5.886719 13.148438 13.148438 13.148438h283.066406c7.261718 0 13.148437-5.886719 13.148437-13.148438v-207.53125zm0 0" fill="#ff6930"/><path d="m346.488281 466.882812v-207.53125h-76.597656v207.53125c0 7.261719-5.886719 13.148438-13.148437 13.148438h76.597656c7.261718 0 13.148437-5.886719 13.148437-13.148438zm0 0" fill="#ff5426"/><path d="m337.113281 429.503906h-290.613281c-25.679688 0-46.5 20.816406-46.5 46.5v27.496094c0 4.695312 3.804688 8.5 8.5 8.5h366.613281c4.695313 0 8.5-3.804688 8.5-8.5v-27.496094c0-25.683594-20.820312-46.5-46.5-46.5zm0 0" fill="#ff6930"/><path d="m335.660156 429.503906h-40.613281c9.066406 8.722656 14.714844 20.96875 14.714844 34.546875v25.777344c0 4.84375-3.921875 8.765625-8.765625 8.765625h-300.996094v4.640625c0 4.839844 3.925781 8.765625 8.765625 8.765625h366.082031c4.839844 0 8.765625-3.925781 8.765625-8.765625v-25.78125c0-26.480469-21.46875-47.949219-47.953125-47.949219zm0 0" fill="#ff5426"/><path d="m448.140625 105.128906v112.972656h16.554687v-112.972656zm0 0" fill="#ff5426"/><path d="m263.972656 188.539062c3.765625 0 6.664063-3.421874 5.929688-7.113281-7.066406-35.65625-38.515625-62.539062-76.246094-62.539062s-69.179688 26.882812-76.246094 62.539062c-.730468 3.691407 2.164063 7.113281 5.929688 7.113281zm0 0" fill="#b9acac"/><path d="m269.902344 181.425781c-7.066406-35.65625-38.515625-62.539062-76.246094-62.539062-2.382812 0-4.742188.109375-7.074219.320312 25.542969 9.035157 44.957031 31.03125 50.324219 58.09375.730469 3.691407-2.167969 7.113281-5.933594 7.113281h-113.367187c.789062 2.363282 3.035156 4.125 5.734375 4.125h140.632812c3.765625 0 6.664063-3.421874 5.929688-7.113281zm0 0" fill="#9e9797"/><path d="m191.8125 169.402344c-2.476562 0-4.902344-1.226563-6.332031-3.472656l-39.054688-61.359376c-2.226562-3.492187-1.195312-8.128906 2.296875-10.351562 3.496094-2.226562 8.132813-1.195312 10.355469 2.296875l39.054687 61.359375c2.222657 3.492188 1.195313 8.128906-2.300781 10.351562-1.246093.796876-2.640625 1.175782-4.019531 1.175782zm0 0" fill="#f04424"/></svg>