<?xml version="1.0" encoding="utf-8"?>
<!-- Generator: Adobe Illustrator 15.0.2, SVG Export Plug-In . SVG Version: 6.00 Build 0)  -->
<!DOCTYPE svg PUBLIC "-//W3C//DTD SVG 1.1//EN" "http://www.w3.org/Graphics/SVG/1.1/DTD/svg11.dtd">
<svg version="1.1" id="Layer_1" xmlns="http://www.w3.org/2000/svg" xmlns:xlink="http://www.w3.org/1999/xlink" x="0px" y="0px"
	 width="997.057px" height="997.057px" viewBox="0 0 997.057 997.057" enable-background="new 0 0 997.057 997.057"
	 xml:space="preserve">
<symbol  id="Symbol_24" viewBox="-108.75 -56.7 165.45 165.45">
	<g id="Layer_1_2_">
		<path fill-rule="evenodd" clip-rule="evenodd" fill="#CCCCCC" d="M45.4,67.8C52.767,55.367,56.533,41.433,56.7,26
			c-0.167-15.4-3.934-29.317-11.3-41.75c-7.367-12.4-17.25-22.283-29.65-29.65C3.317-52.767-10.6-56.533-26-56.7
			c-15.433,0.167-29.367,3.934-41.8,11.3c-12.4,7.367-22.284,17.25-29.65,29.65c-7.367,12.433-11.133,26.35-11.3,41.75
			c0.167,15.433,3.933,29.367,11.3,41.8c7.367,12.4,17.25,22.284,29.65,29.65c12.433,7.367,26.367,11.133,41.8,11.3
			c15.4-0.167,29.317-3.933,41.75-11.3C28.15,90.083,38.033,80.2,45.4,67.8z"/>
		<g>
			<path fill-rule="evenodd" clip-rule="evenodd" fill="#FE000C" d="M43.3,65.6c6.867-12.133,10.367-25.184,10.5-39.15
				c0.167-13.934-3.4-27.367-10.7-40.3c-7.6-12.8-17.467-22.617-29.6-29.45C1.367-50.167-11.667-53.667-25.6-53.8
				c-13.967-0.167-27.433,3.4-40.4,10.7c-12.767,7.6-22.583,17.45-29.45,29.55c-6.8,12.167-10.283,25.216-10.45,39.15
				c-0.133,13.967,3.433,27.433,10.7,40.4c7.567,12.767,17.434,22.583,29.6,29.45c12.133,6.8,25.184,10.283,39.15,10.45
				c13.934,0.133,27.367-3.433,40.3-10.7C26.65,87.633,36.467,77.767,43.3,65.6z"/>
		</g>
		<g>
			<path fill-rule="evenodd" clip-rule="evenodd" fill="#FFFFFF" d="M-96.45,25.65V36.4h36.3c3.9-0.167,6.917-1.633,9.05-4.4
				c2.167-2.8,2.25-5.967,0.25-9.5l-7.1-10.95h-15.3l5.9,9.4c2.2,2.966,3.533,4.533,4,4.7H-96.45z M-89.45,24.05
				c2.233-0.033,3.817-0.833,4.75-2.4c0.934-1.566,1.383-3.517,1.35-5.85V2.85h-13.1v21.2H-89.45z M4.8,25.75V36.4h36
				c2.767-0.066,4.684-0.933,5.75-2.6c1.1-1.7,1.667-3.716,1.7-6.05v-2H4.8z M34.15,24.05h5.75V11.5H27.3v7.35
				c0.067,1.467,0.784,2.683,2.15,3.65C30.783,23.5,32.35,24.017,34.15,24.05z M-45.85,44.45l14.5,2.95v-11H-8.8
				c3.3-0.233,5.683-1.783,7.15-4.65c1.5-2.9,1.45-5.75-0.15-8.55l-7.7-11.65h-15.3l5.9,9.4l4.2,4.7h-23.45
				c-4.967-0.066-7.533,1.95-7.7,6.05V44.45z"/>
		</g>
	</g>
</symbol>
<use xlink:href="#Symbol_24"  width="165.45" height="165.45" x="-108.75" y="-56.7" transform="matrix(6.0263 0 0 -6.0263 655.3628 655.3628)" overflow="visible"/>
</svg>
