<?xml version="1.0" encoding="utf-8"?>
<!-- Generator: Adobe Illustrator 18.0.0, SVG Export Plug-In . SVG Version: 6.00 Build 0)  -->
<!DOCTYPE svg PUBLIC "-//W3C//DTD SVG 1.1//EN" "http://www.w3.org/Graphics/SVG/1.1/DTD/svg11.dtd">
<svg version="1.1" id="Layer_1" xmlns="http://www.w3.org/2000/svg" xmlns:xlink="http://www.w3.org/1999/xlink" x="0px" y="0px"
	 viewBox="0 0 146 92" width="398.366228707" height="251.025294801" style="enable-background:new 0 0 146 92;" xml:space="preserve">
<style type="text/css">
	.st0{clip-path:url(#SVGID_2_);}
	.st1{clip-path:url(#SVGID_4_);enable-background:new    ;}
	.st2{clip-path:url(#SVGID_6_);}
	.st3{clip-path:url(#SVGID_8_);}
	.st4{clip-path:url(#SVGID_10_);fill:#FEFEFE;}
	.st5{clip-path:url(#SVGID_12_);}
	.st6{clip-path:url(#SVGID_14_);fill:#0061A3;}
	.st7{clip-path:url(#SVGID_16_);}
	.st8{clip-path:url(#SVGID_18_);fill:#FEFEFE;}
	.st9{clip-path:url(#SVGID_20_);}
	.st10{clip-path:url(#SVGID_22_);fill:#FCB627;}
	.st11{clip-path:url(#SVGID_24_);}
	.st12{clip-path:url(#SVGID_26_);fill:#FEFEFE;}
	.st13{clip-path:url(#SVGID_28_);}
	.st14{clip-path:url(#SVGID_30_);fill:#FEFEFE;}
	.st15{clip-path:url(#SVGID_32_);}
	.st16{clip-path:url(#SVGID_34_);fill:#0061A3;}
	.st17{clip-path:url(#SVGID_36_);}
	.st18{clip-path:url(#SVGID_38_);fill:#0061A3;}
</style>
<g>
	<defs>
		<rect id="SVGID_1_" width="146" height="92"/>
	</defs>
	<clipPath id="SVGID_2_">
		<use xlink:href="#SVGID_1_"  style="overflow:visible;"/>
	</clipPath>
	<g class="st0">
		<defs>
			<rect id="SVGID_3_" x="-727" y="-19" width="1600" height="1102"/>
		</defs>
		<clipPath id="SVGID_4_">
			<use xlink:href="#SVGID_3_"  style="overflow:visible;"/>
		</clipPath>
		<g class="st1">
			<g>
				<defs>
					<rect id="SVGID_5_" width="146" height="92"/>
				</defs>
				<clipPath id="SVGID_6_">
					<use xlink:href="#SVGID_5_"  style="overflow:visible;"/>
				</clipPath>
				<g class="st2">
					<defs>
						<path id="SVGID_7_" d="M85.3,86.9c-3,3.1-7.4,5.1-12.2,5.1c-5,0-9.3-2.1-12.3-5.3L4.5,27.6C2.3,25,0,20.6,0,16.4
							C0,7.3,7.8,0,17,0l111.9,0c9.2,0,17.1,7.2,17.1,16.4c0,4.4-1.8,8.3-4.5,11.2L85.3,86.9z"/>
					</defs>
					<clipPath id="SVGID_8_">
						<use xlink:href="#SVGID_7_"  style="overflow:visible;"/>
					</clipPath>
					<g class="st3">
						<defs>
							<rect id="SVGID_9_" width="146" height="92"/>
						</defs>
						<clipPath id="SVGID_10_">
							<use xlink:href="#SVGID_9_"  style="overflow:visible;"/>
						</clipPath>
						<rect x="-5" y="-5" class="st4" width="156" height="102"/>
					</g>
				</g>
			</g>
		</g>
	</g>
</g>
<g>
	<defs>
		<path id="SVGID_11_" d="M141,17.1c0-6.1-5-11-11.3-11c0,0,0,0,0,0l0-0.1H17.4l0,0c-0.1,0-0.1,0-0.2,0C11,6,6,10.9,6,17
			c0,2.8,1.1,5.4,2.8,7.3l0,0L65,83.2c2.1,2.3,5.1,3.8,8.5,3.8c3.1,0,5.9-1.2,7.9-3.2L138,24.5l0,0C139.9,22.6,141,20,141,17.1"/>
	</defs>
	<clipPath id="SVGID_12_">
		<use xlink:href="#SVGID_11_"  style="overflow:visible;"/>
	</clipPath>
	<g class="st5">
		<defs>
			<rect id="SVGID_13_" x="-727" y="-19" width="1600" height="1102"/>
		</defs>
		<clipPath id="SVGID_14_">
			<use xlink:href="#SVGID_13_"  style="overflow:visible;"/>
		</clipPath>
		<rect x="1" y="1" class="st6" width="145" height="91"/>
	</g>
</g>
<g>
	<defs>
		<path id="SVGID_15_" d="M133,16.5c0-2.5-2-4.5-4.5-4.5l0,0H16.6c0,0,0,0-0.1,0C14,12,12,14,12,16.5c0,1.2,0.5,2.3,1.2,3.1l0,0
			l56,59h0c0.8,0.9,2,1.4,3.4,1.4c1.3,0,2.4-0.5,3.3-1.3h0l55.6-58.8C132.4,19,133,17.8,133,16.5"/>
	</defs>
	<clipPath id="SVGID_16_">
		<use xlink:href="#SVGID_15_"  style="overflow:visible;"/>
	</clipPath>
	<g class="st7">
		<defs>
			<rect id="SVGID_17_" x="-727" y="-19" width="1600" height="1102"/>
		</defs>
		<clipPath id="SVGID_18_">
			<use xlink:href="#SVGID_17_"  style="overflow:visible;"/>
		</clipPath>
		<rect x="7" y="7" class="st8" width="131" height="78"/>
	</g>
</g>
<g>
	<defs>
		<path id="SVGID_19_" d="M133,17.2c0-1.8-1.4-3.2-3.2-3.2c0,0,0,0,0,0v0H17.3c0,0,0,0-0.1,0c-1.8,0-3.2,1.4-3.2,3.2
			c0,0.8,0.3,1.5,0.7,2l0,0c0.1,0.1,0.1,0.2,0.2,0.2L71.2,79h0c0.6,0.6,1.4,1,2.4,1c0.9,0,1.7-0.4,2.3-1h0l56.2-59.6l0,0
			C132.7,18.8,133,18,133,17.2"/>
	</defs>
	<clipPath id="SVGID_20_">
		<use xlink:href="#SVGID_19_"  style="overflow:visible;"/>
	</clipPath>
	<g class="st9">
		<defs>
			<rect id="SVGID_21_" x="-727" y="-19" width="1600" height="1102"/>
		</defs>
		<clipPath id="SVGID_22_">
			<use xlink:href="#SVGID_21_"  style="overflow:visible;"/>
		</clipPath>
		<rect x="9" y="9" class="st10" width="129" height="76"/>
	</g>
</g>
<g>
	<defs>
		<path id="SVGID_23_" d="M63.1,18H47.9c-1.1,0-1.9,0.8-1.9,1.9v6.9c0,1,0.9,1.9,1.9,1.9H50V48c0,1.1,0.9,2,2,2h6.9c1.1,0,2-0.9,2-2
			V28.7h2.2c1.1,0,1.9-0.8,1.9-1.9v-6.9C65,18.8,64.1,18,63.1,18"/>
	</defs>
	<clipPath id="SVGID_24_">
		<use xlink:href="#SVGID_23_"  style="overflow:visible;"/>
	</clipPath>
	<g class="st11">
		<defs>
			<rect id="SVGID_25_" x="-727" y="-19" width="1600" height="1102"/>
		</defs>
		<clipPath id="SVGID_26_">
			<use xlink:href="#SVGID_25_"  style="overflow:visible;"/>
		</clipPath>
		<rect x="41" y="13" class="st12" width="29" height="42"/>
	</g>
</g>
<g>
	<defs>
		<path id="SVGID_27_" d="M97,18H69c-1.1,0-2,0.9-2,2v6.7c0,1.1,0.9,2,2,2h2v6c0,1.1,0.9,2,2,2h6.2c1.1,0,2-0.9,2-2v-6h7.2v10.7H69
			c-1.1,0-2,0.9-2,2V48c0,1.1,0.9,2,2,2H97c1.1,0,2-0.9,2-2V26.7v-0.2V20C99,18.9,98.1,18,97,18"/>
	</defs>
	<clipPath id="SVGID_28_">
		<use xlink:href="#SVGID_27_"  style="overflow:visible;"/>
	</clipPath>
	<g class="st13">
		<defs>
			<rect id="SVGID_29_" x="-727" y="-19" width="1600" height="1102"/>
		</defs>
		<clipPath id="SVGID_30_">
			<use xlink:href="#SVGID_29_"  style="overflow:visible;"/>
		</clipPath>
		<rect x="62" y="13" class="st14" width="42" height="42"/>
	</g>
</g>
<g>
	<defs>
		<path id="SVGID_31_" d="M63.6,19H48.4c-0.2,0-0.4,0.2-0.4,0.4v7c0,0.2,0.2,0.4,0.4,0.4h3.1c0.2,0,0.4,0.2,0.4,0.4v20.2
			c0,0.2,0.2,0.4,0.4,0.4h7.1c0.2,0,0.4-0.2,0.4-0.4V27.3c0-0.4,0.4-0.4,0.4-0.4h3.1c0.2,0,0.4-0.2,0.4-0.4v-7
			C64,19.2,63.8,19,63.6,19"/>
	</defs>
	<clipPath id="SVGID_32_">
		<use xlink:href="#SVGID_31_"  style="overflow:visible;"/>
	</clipPath>
	<g class="st15">
		<defs>
			<rect id="SVGID_33_" x="-727" y="-19" width="1600" height="1102"/>
		</defs>
		<clipPath id="SVGID_34_">
			<use xlink:href="#SVGID_33_"  style="overflow:visible;"/>
		</clipPath>
		<rect x="43" y="14" class="st16" width="26" height="39"/>
	</g>
</g>
<g>
	<defs>
		<path id="SVGID_35_" d="M98,22.9v-3.5c0-0.2-0.2-0.4-0.5-0.4H68.5c-0.3,0-0.5,0.2-0.5,0.4v7c0,0.2,0.2,0.4,0.5,0.4h3.2
			c0.3,0,0.5,0.2,0.5,0.4v7.1c0,0.2,0.2,0.4,0.5,0.4h6.6c0.3,0,0.5-0.2,0.5-0.4v-7c0-0.3,0.3-0.4,0.4-0.4h9.4c0.2,0,0.4,0.2,0.4,0.4
			v12.4c0,0.3-0.3,0.4-0.4,0.4h-21c-0.3,0-0.5,0.2-0.5,0.4v7c0,0.2,0.2,0.4,0.5,0.4H91h2.2h4.3c0.3,0,0.5-0.2,0.5-0.4L98,22.9
			C98,22.9,98,22.9,98,22.9"/>
	</defs>
	<clipPath id="SVGID_36_">
		<use xlink:href="#SVGID_35_"  style="overflow:visible;"/>
	</clipPath>
	<g class="st17">
		<defs>
			<rect id="SVGID_37_" x="-727" y="-19" width="1600" height="1102"/>
		</defs>
		<clipPath id="SVGID_38_">
			<use xlink:href="#SVGID_37_"  style="overflow:visible;"/>
		</clipPath>
		<rect x="63" y="14" class="st18" width="40" height="39"/>
	</g>
</g>
</svg>
