<?xml version="1.0" encoding="utf-8"?>
<!-- Generator: Adobe Illustrator 15.0.2, SVG Export Plug-In . SVG Version: 6.00 Build 0)  -->
<!DOCTYPE svg PUBLIC "-//W3C//DTD SVG 1.1//EN" "http://www.w3.org/Graphics/SVG/1.1/DTD/svg11.dtd">
<svg version="1.1" id="Layer_1" xmlns="http://www.w3.org/2000/svg" xmlns:xlink="http://www.w3.org/1999/xlink" x="0px" y="0px"
	 width="753.403px" height="769.864px" viewBox="0 0 753.403 769.864" enable-background="new 0 0 753.403 769.864"
	 xml:space="preserve">
<path fill="#0074BC" d="M188.338,638.83c4.463-16.863-0.324-31.774-25.5-31.774H97.057c-4.024,0-5.602-2.924-4.659-6.496
	l9.429-35.67c-6.786-2.268-16.334-4.212-32.11-4.212s-27.367,3.249-36.211,7.451l-13.368,50.599
	c-3.691,13.947,3.138,24.971,16.224,24.971h67.465c9.392,0,11.472,3.572,9.673,10.375c-0.431,1.629-1.198,3.248-2.042,5.201
	l-19.983,47.664c-6.979,16.216-19.276,25.951-38.407,25.951H29.233C18.461,739.378,4.25,758.825,0,769.864h59.737
	c43.966,0,83.852-20.119,100.778-61.305l25.188-62.262C186.714,643.698,187.661,641.431,188.338,638.83"/>
<polyline fill="#0074BC" points="249.163,769.864 292.015,607.704 220.193,607.704 177.34,769.864 249.163,769.864 "/>
<path fill="#0074BC" d="M396.595,746.829l22.721-85.943c9.693-36.651-4.562-53.83-43.833-53.83h-61.754
	c-0.175,0.648-0.682,1.296-0.856,1.936c-3.772,14.279,1.197,27.247,6.44,34.059H332.4c12.754,0,20.605,7.136,17.183,20.104
	l-17.234,65.193c-1.197,4.543-1.624,4.867-4.642,4.867h-33.561c-11.871,8.1-23.3,25.943-27.813,36.65h100.352
	C381.795,769.864,392.401,762.72,396.595,746.829"/>
<polyline fill="#0074BC" points="489.505,769.864 532.362,607.704 460.536,607.704 417.687,769.864 489.505,769.864 "/>
<path fill-rule="evenodd" clip-rule="evenodd" fill="#0074BC" d="M676.978,656.35c-0.427,1.62-1.364,3.888-2.132,5.516
	l-23.291,52.534c-5.099,11.67-16.957,18.49-26.36,18.49h-12.754c-5.039,0-6.863-3.248-6.07-10.059l10.315-75.885
	c0.095-0.324-0.067-0.973,0.018-1.305c0.512-1.943,1.688-2.592,4.041-2.592h46.65C677.131,643.05,678.947,648.89,676.978,656.35
	 M751.916,638.19c4.468-16.871-0.494-31.135-23.649-31.135H569.848c-12.413,0-19.6,8.1-21.91,16.855
	c-0.341,1.304-0.768,2.932-0.784,4.219l-9.967,117.727c-1.338,15.244,3.061,24.008,19.507,24.008h83.232
	c33.897,0,62.729-24.008,75.723-51.569l32.175-68.433C749.529,645.974,750.893,642.078,751.916,638.19z"/>
<path fill="#ED1C24" d="M195.849,495.144C87.883,420.154,231.596,312.931,202,294.149c-60.479-38.381-85.211-109.713-52.571-154.002
	c41.932-56.898,114.521-30.24,158.23-26.505c29.422,2.506,32.985-131.768,136.884-111.572
	c113.933,22.149,60.343,146.688,88.562,155.392c41.919,12.924,119.219,15.379,136.78,83.847
	c13.675,53.301-35.985,110.165-106.43,123.098c-34.494,6.317,58.603,159.586-69.593,188.667
	c-69.32,15.721-72.491-84.461-136.606-96.686C293.656,444.272,254.226,535.69,195.849,495.144"/>
<path fill="#FDB515" d="M353.658,207.225c22.575-12.489,29.702,17.861,47.371,10.981c9.225-3.598,16.07-13.283,19.898-15.772
	c6.266-4.058,13.419-4.919,17.75,1.756c7.74,11.918-0.836,29.668,8.064,43.607c7.945,12.438,9.549,9.915,26.292,21.876
	c11.544,8.235,6.642,23.3-9.292,28.014c-9.651,2.848-16.607,5.695-25.048,14.595c-7.46,7.86-0.137,25.116-18.228,36.855
	c-11.509,7.477-26.274-2.49-30.771-9.412c-3.841-5.917-7.848-22.848-17.669-19.242c-15.363,5.626-42.243,4.16-50.44-10.384
	c-16.177-28.697,15.495-31.8,24.625-47.103C351.232,254.592,331.274,219.612,353.658,207.225"/>
</svg>
